<svg width="49" height="48" viewBox="0 0 49 48" fill="none" xmlns="http://www.w3.org/2000/svg">
<path fill-rule="evenodd" clip-rule="evenodd" d="M24.7619 48C38.0167 48 48.7619 37.2549 48.7619 24C48.7619 10.7451 38.0167 0 24.7619 0C11.507 0 0.761719 10.7451 0.761719 24C0.761719 37.2549 11.507 48 24.7619 48ZM11.4675 22.7397C11.4975 31.7767 18.3578 37.4047 24.952 37.3828C33.0929 37.3557 37.9097 30.671 37.8895 24.5699C37.8691 18.4685 34.5517 14.0591 27.2439 12.2792C27.2288 12.2033 27.215 12.0406 27.2145 11.8881C27.1992 7.27707 30.675 3.21279 35.0422 2.30704C34.6305 2.16777 33.9581 2.1142 33.3152 2.11639C28.3205 2.13296 22.8132 4.26913 18.7932 7.59786C14.6718 11.0108 11.4475 16.7633 11.4675 22.7397Z" fill="white"/>
</svg>
